<mxfile host="app.diagrams.net" agent="Mozilla/5.0 (Windows NT 10.0; Win64; x64) AppleWebKit/537.36 (KHTML, like Gecko) Chrome/129.0.0.0 Safari/537.36" version="24.7.17">
  <diagram name="PÃ¡gina-1" id="JFqMnv3T0kA6iG7ZzMD1">
    <mxGraphModel grid="1" page="1" gridSize="10" guides="1" tooltips="1" connect="1" arrows="1" fold="1" pageScale="1" pageWidth="827" pageHeight="1169" math="0" shadow="0">
      <root>
        <mxCell id="0" />
        <mxCell id="1" parent="0" />
        <mxCell id="F2xsjTH1JGB2Usv7eV0p-1" style="rounded=0;orthogonalLoop=1;jettySize=auto;html=1;exitX=0.5;exitY=0.5;exitDx=0;exitDy=0;exitPerimeter=0;" edge="1" parent="1" source="F2xsjTH1JGB2Usv7eV0p-4" target="F2xsjTH1JGB2Usv7eV0p-7">
          <mxGeometry relative="1" as="geometry" />
        </mxCell>
        <mxCell id="F2xsjTH1JGB2Usv7eV0p-2" style="edgeStyle=orthogonalEdgeStyle;rounded=0;orthogonalLoop=1;jettySize=auto;html=1;exitX=0.5;exitY=0.5;exitDx=0;exitDy=0;exitPerimeter=0;entryX=0;entryY=0.5;entryDx=0;entryDy=0;" edge="1" parent="1" source="F2xsjTH1JGB2Usv7eV0p-4" target="F2xsjTH1JGB2Usv7eV0p-10">
          <mxGeometry relative="1" as="geometry" />
        </mxCell>
        <mxCell id="F2xsjTH1JGB2Usv7eV0p-3" style="rounded=0;orthogonalLoop=1;jettySize=auto;html=1;exitX=0.5;exitY=0.5;exitDx=0;exitDy=0;exitPerimeter=0;entryX=0;entryY=0.5;entryDx=0;entryDy=0;" edge="1" parent="1" source="F2xsjTH1JGB2Usv7eV0p-4" target="F2xsjTH1JGB2Usv7eV0p-12">
          <mxGeometry relative="1" as="geometry" />
        </mxCell>
        <mxCell id="F2xsjTH1JGB2Usv7eV0p-4" value="Usuario" style="shape=umlActor;verticalLabelPosition=bottom;verticalAlign=top;html=1;outlineConnect=0;fillColor=#B9E0A5;" vertex="1" parent="1">
          <mxGeometry x="90" y="345" width="30" height="60" as="geometry" />
        </mxCell>
        <mxCell id="F2xsjTH1JGB2Usv7eV0p-5" value="" style="swimlane;startSize=0;" vertex="1" parent="1">
          <mxGeometry x="150" y="180" width="480" height="390" as="geometry" />
        </mxCell>
        <mxCell id="F2xsjTH1JGB2Usv7eV0p-6" style="rounded=0;orthogonalLoop=1;jettySize=auto;html=1;exitX=1;exitY=0.5;exitDx=0;exitDy=0;entryX=0;entryY=0.5;entryDx=0;entryDy=0;" edge="1" parent="F2xsjTH1JGB2Usv7eV0p-5" source="F2xsjTH1JGB2Usv7eV0p-7" target="F2xsjTH1JGB2Usv7eV0p-8">
          <mxGeometry relative="1" as="geometry" />
        </mxCell>
        <mxCell id="F2xsjTH1JGB2Usv7eV0p-7" value="Ingresar datos de un trabajador" style="ellipse;whiteSpace=wrap;html=1;fillColor=#B9E0A5;" vertex="1" parent="F2xsjTH1JGB2Usv7eV0p-5">
          <mxGeometry x="50" y="20" width="120" height="80" as="geometry" />
        </mxCell>
        <mxCell id="F2xsjTH1JGB2Usv7eV0p-8" value="Guardar datos&amp;nbsp;" style="ellipse;whiteSpace=wrap;html=1;fillColor=#E6D0DE;" vertex="1" parent="F2xsjTH1JGB2Usv7eV0p-5">
          <mxGeometry x="274" y="150" width="120" height="80" as="geometry" />
        </mxCell>
        <mxCell id="F2xsjTH1JGB2Usv7eV0p-9" style="rounded=0;orthogonalLoop=1;jettySize=auto;html=1;exitX=1;exitY=0.5;exitDx=0;exitDy=0;entryX=0;entryY=0.5;entryDx=0;entryDy=0;" edge="1" parent="F2xsjTH1JGB2Usv7eV0p-5" source="F2xsjTH1JGB2Usv7eV0p-10" target="F2xsjTH1JGB2Usv7eV0p-8">
          <mxGeometry relative="1" as="geometry">
            <mxPoint x="270" y="190" as="targetPoint" />
          </mxGeometry>
        </mxCell>
        <mxCell id="F2xsjTH1JGB2Usv7eV0p-10" value="Modificar datos de un trabajador" style="ellipse;whiteSpace=wrap;html=1;fillColor=#B9E0A5;" vertex="1" parent="F2xsjTH1JGB2Usv7eV0p-5">
          <mxGeometry x="50" y="155" width="120" height="80" as="geometry" />
        </mxCell>
        <mxCell id="F2xsjTH1JGB2Usv7eV0p-11" style="rounded=0;orthogonalLoop=1;jettySize=auto;html=1;exitX=1;exitY=0.5;exitDx=0;exitDy=0;" edge="1" parent="F2xsjTH1JGB2Usv7eV0p-5" source="F2xsjTH1JGB2Usv7eV0p-12">
          <mxGeometry relative="1" as="geometry">
            <mxPoint x="270" y="190" as="targetPoint" />
          </mxGeometry>
        </mxCell>
        <mxCell id="F2xsjTH1JGB2Usv7eV0p-12" value="Desactivar a un&amp;nbsp; trabajador" style="ellipse;whiteSpace=wrap;html=1;fillColor=#B9E0A5;" vertex="1" parent="F2xsjTH1JGB2Usv7eV0p-5">
          <mxGeometry x="50" y="280" width="120" height="80" as="geometry" />
        </mxCell>
        <mxCell id="F2xsjTH1JGB2Usv7eV0p-13" style="edgeStyle=orthogonalEdgeStyle;rounded=0;orthogonalLoop=1;jettySize=auto;html=1;exitX=0.5;exitY=0.5;exitDx=0;exitDy=0;exitPerimeter=0;entryX=1;entryY=0.5;entryDx=0;entryDy=0;" edge="1" parent="1" source="F2xsjTH1JGB2Usv7eV0p-14" target="F2xsjTH1JGB2Usv7eV0p-8">
          <mxGeometry relative="1" as="geometry" />
        </mxCell>
        <mxCell id="F2xsjTH1JGB2Usv7eV0p-14" value="Sistema" style="shape=umlActor;verticalLabelPosition=bottom;verticalAlign=top;html=1;outlineConnect=0;fillColor=#E6D0DE;" vertex="1" parent="1">
          <mxGeometry x="650" y="340" width="30" height="60" as="geometry" />
        </mxCell>
        <mxCell id="F2xsjTH1JGB2Usv7eV0p-15" value="&lt;font style=&quot;font-size: 24px;&quot;&gt;RRHH&lt;/font&gt;" style="rounded=0;whiteSpace=wrap;html=1;" vertex="1" parent="1">
          <mxGeometry x="150" y="120" width="480" height="60" as="geometry" />
        </mxCell>
      </root>
    </mxGraphModel>
  </diagram>
</mxfile>
